<?xml version="1.0" standalone="no"?>
<!DOCTYPE svg PUBLIC "-//W3C//DTD SVG 20010904//EN"
 "http://www.w3.org/TR/2001/REC-SVG-20010904/DTD/svg10.dtd">
<svg version="1.0" xmlns="http://www.w3.org/2000/svg"
 width="255.015239pt" height="126.103178pt" viewBox="0 0 255.015239 126.103178"
 preserveAspectRatio="xMidYMid meet">
<metadata>
Created by potrace 1.12, written by Peter Selinger 2001-2015
</metadata>
<g transform="translate(-3.984761,139.560788) scale(0.100000,-0.100000)"
fill="#000000" stroke="none">
<path d="M1184 1391 c-73 -18 -112 -68 -136 -170 -9 -39 -9 -57 0 -76 10 -21
9 -30 -4 -50 -8 -13 -21 -22 -28 -19 -7 3 -42 -6 -77 -19 -52 -19 -67 -30 -81
-58 -24 -46 -23 -129 2 -181 17 -35 17 -42 5 -55 -8 -8 -15 -25 -15 -39 0 -22
-18 -32 -32 -19 -3 3 -51 8 -108 10 l-103 5 5 -49 c3 -28 0 -55 -6 -61 -7 -7
-6 -14 2 -22 20 -20 14 -28 -20 -23 -18 3 -6 -4 27 -15 33 -11 71 -20 85 -20
38 0 70 -11 64 -21 -3 -5 2 -6 11 -3 23 9 194 -53 277 -100 66 -38 73 -45 75
-75 1 -18 4 -44 7 -57 7 -28 15 -28 -99 -9 -49 8 -93 15 -97 15 -15 0 -7 56
12 88 15 25 27 32 52 33 19 1 25 3 15 6 -50 13 -97 -36 -97 -101 0 -26 -1 -26
-74 -26 -91 0 -176 18 -176 38 0 10 8 12 33 7 17 -4 37 -11 42 -15 18 -13 55
-18 61 -9 8 13 48 11 62 -3 6 -6 15 -8 19 -4 9 9 -67 81 -134 125 -25 17 -64
47 -84 66 -36 33 -39 34 -49 16 -5 -11 -15 -52 -20 -92 -6 -41 -14 -77 -19
-82 -4 -4 -38 2 -75 14 l-68 21 5 41 c12 82 16 132 11 115 -3 -10 -10 -18 -16
-18 -6 0 -17 -8 -24 -18 -13 -16 -13 -16 -14 3 0 11 -9 37 -20 58 -11 20 -20
38 -20 40 0 5 93 0 135 -7 l40 -7 -24 20 c-13 12 -35 21 -50 22 -140 4 -201
-13 -230 -66 -9 -16 -20 -33 -24 -36 -4 -3 -7 -12 -5 -20 2 -8 -5 -14 -17 -14
-11 0 -19 6 -18 13 5 20 -25 14 -32 -7 -10 -31 5 -51 39 -52 l31 -2 -35 -6
c-29 -5 -35 -10 -35 -31 0 -22 5 -25 37 -28 25 -2 41 -10 52 -26 19 -29 12
-36 -34 -36 -69 0 -162 -13 -149 -21 7 -4 64 -10 128 -14 64 -3 206 -18 316
-31 203 -26 681 -44 625 -25 l-25 9 27 1 c32 1 58 -8 58 -20 0 -5 -40 -9 -90
-9 -49 0 -90 -4 -90 -9 0 -11 76 -20 237 -28 106 -5 136 -3 149 8 13 10 46 13
137 12 66 -1 122 -5 125 -8 5 -5 -163 -10 -217 -7 -19 1 -22 -1 -12 -11 25
-25 987 -8 1099 20 32 8 9 33 -32 34 -23 0 -16 4 26 13 68 14 88 30 88 65 0
28 -44 106 -73 129 -9 8 -26 34 -38 59 -12 25 -36 53 -53 64 -40 25 -109 24
-164 -1 l-43 -19 -9 23 c-5 13 -13 27 -19 30 -12 8 -101 -15 -101 -27 0 -4
-18 6 -40 24 -29 24 -37 35 -29 45 7 8 6 14 -3 18 -15 6 49 -2 75 -10 12 -4
16 -12 12 -25 -5 -16 -2 -19 21 -17 26 3 26 3 -17 42 -24 21 -67 56 -95 77
-29 21 -70 66 -92 99 -48 74 -100 112 -153 114 -31 0 -39 5 -44 23 -7 29 -31
41 -98 49 -68 8 -97 1 -135 -31 l-30 -25 -22 27 c-12 16 -40 42 -63 59 -39 29
-44 30 -65 16 -20 -13 -27 -13 -61 4 -31 15 -38 23 -38 48 0 28 -6 36 -68 83
-13 10 -26 34 -30 53 l-6 35 24 -40 c18 -29 39 -46 74 -60 26 -11 49 -19 51
-17 1 1 17 -5 35 -15 17 -9 36 -16 41 -14 5 1 3 -6 -5 -15 -12 -16 -12 -17 5
-11 14 6 17 4 12 -8 -3 -9 -2 -13 4 -10 6 3 10 15 10 25 0 10 4 20 10 22 5 2
13 30 16 64 5 48 4 61 -7 61 -8 0 -23 4 -34 8 -18 7 -19 7 -3 -6 15 -12 16
-21 7 -61 -6 -27 -14 -48 -19 -48 -4 0 -24 7 -44 15 -35 15 -36 16 -30 58 3
23 7 47 9 53 2 6 -19 16 -45 23 -27 7 -54 19 -61 27 -7 9 -21 13 -31 11 -19
-5 -25 8 -8 18 6 4 27 -3 46 -14 19 -12 32 -17 29 -11 -9 14 8 12 25 -2 8 -7
4 -1 -9 14 -37 42 -19 44 46 4 52 -32 122 -61 130 -53 9 10 -38 74 -72 98 -45
32 -85 41 -131 30z m131 -63 c14 -6 25 -17 25 -25 0 -17 -6 -17 -41 4 -47 28
-35 44 16 21z m-235 -181 c0 -20 0 -20 -14 -2 -8 11 -12 23 -9 28 8 13 23 -3
23 -26z m-14 -124 c4 -16 6 -35 5 -44 -2 -20 43 -41 74 -33 13 3 33 -1 47 -10
23 -15 26 -15 42 3 17 19 38 22 52 8 12 -12 24 -8 24 7 0 8 -6 16 -12 19 -9 3
-7 11 9 27 l21 23 34 -21 c42 -26 88 -77 88 -97 0 -17 -16 -20 -25 -5 -10 16
-38 11 -65 -10 -14 -11 -37 -20 -52 -20 -17 0 -28 -5 -28 -14 0 -9 -7 -12 -20
-9 -11 3 -20 9 -20 14 0 5 -7 6 -15 3 -8 -4 -15 -12 -15 -19 0 -8 -8 -11 -20
-8 -12 3 -20 0 -20 -7 0 -10 -3 -10 -15 0 -8 6 -23 9 -33 6 -15 -5 -21 -1 -24
19 -6 29 10 45 23 24 6 -10 9 -11 9 -1 0 7 13 12 30 12 17 0 30 4 30 10 0 14
-46 23 -89 17 -33 -4 -39 -2 -49 22 -6 14 -16 33 -22 41 -13 16 2 70 19 70 5
0 12 -12 17 -27z m-65 6 c28 -14 14 -29 -15 -16 -13 7 -22 15 -20 19 7 10 12
10 35 -3z m-61 -26 c0 -5 -11 -13 -25 -20 -29 -13 -33 -6 -7 13 19 15 32 18
32 7z m178 -32 c3 -8 -1 -12 -9 -9 -7 2 -15 10 -17 17 -3 8 1 12 9 9 7 -2 15
-10 17 -17z m-118 -54 c0 -6 -20 -19 -45 -28 -25 -9 -45 -15 -45 -13 0 5 73
53 83 53 4 1 7 -5 7 -12z m59 -33 c2 -10 8 -25 13 -31 6 -7 7 -13 2 -13 -15 0
-29 14 -41 42 -10 22 -9 26 5 24 9 -2 19 -11 21 -22z m783 -22 c23 -13 118
-130 118 -145 0 -3 -19 0 -42 6 -29 7 -53 7 -83 -1 -64 -17 -103 -2 -149 60
-33 44 -29 60 16 88 37 23 92 20 140 -8z m-359 -59 c-9 -7 -20 -10 -26 -6 -6
4 -3 11 7 19 12 8 16 20 12 36 -4 16 -1 14 8 -7 13 -27 13 -31 -1 -42z m-535
-33 c13 -16 19 -30 14 -30 -4 0 -16 14 -25 30 -10 17 -16 30 -14 30 2 0 13
-13 25 -30z m420 -27 c1 -15 7 -32 12 -37 16 -16 12 -25 -9 -19 -11 3 -18 10
-15 17 3 7 -4 20 -15 30 -23 21 -19 36 7 36 12 0 18 -9 20 -27z m182 18 c0 -5
-7 -14 -15 -21 -10 -9 -15 -9 -15 -1 0 6 -8 11 -17 11 -15 0 -16 2 -3 10 19
12 50 13 50 1z m-276 -43 c-5 -9 -2 -9 9 1 11 8 17 9 17 3 0 -13 -39 -36 -47
-28 -8 8 5 36 17 36 6 0 8 -6 4 -12z m714 -57 c25 -25 -21 -34 -81 -15 -95 29
-97 34 -13 32 54 -2 84 -7 94 -17z m53 -1 c31 -26 15 -26 -18 0 -14 11 -21 20
-15 20 5 0 20 -9 33 -20z m-1181 -5 c0 -14 -35 -42 -47 -38 -11 4 -12 -1 -8
-20 4 -14 2 -28 -5 -32 -8 -5 -8 -10 1 -21 9 -11 8 -14 -4 -14 -20 0 -31 17
-16 25 6 4 8 17 5 30 -8 30 28 70 67 74 4 1 7 -1 7 -4z m465 -35 c-53 -24 -70
-24 -25 0 19 11 42 19 50 19 8 0 -3 -9 -25 -19z m-233 -62 c9 -7 19 -24 23
-37 l7 -24 -25 19 c-14 11 -20 22 -15 25 6 4 -3 11 -18 17 -23 8 -25 11 -8 11
11 1 27 -5 36 -11z m-92 -29 c71 -16 105 -37 123 -75 36 -74 9 -97 -28 -24
-30 59 -58 75 -170 95 l-70 13 50 1 c28 0 70 -4 95 -10z m1205 -19 c18 -19 17
-20 -7 -20 -14 0 -39 -3 -55 -6 -23 -5 -32 -2 -37 12 -14 37 68 49 99 14z
m-1037 -12 c17 -17 15 -31 -2 -25 -10 4 -13 1 -9 -9 8 -21 -5 -17 -17 6 -17
32 3 53 28 28z m192 -3 c40 -21 69 -61 76 -107 4 -21 10 -38 15 -38 4 0 1 -13
-9 -29 -13 -23 -25 -30 -54 -33 -37 -3 -37 -3 -48 42 -17 76 -19 80 -25 90 -4
6 -11 8 -16 5 -5 -3 -6 1 -3 9 7 17 -29 56 -52 56 -8 0 -12 5 -9 10 9 15 92
12 125 -5z m167 0 c-11 -7 -25 -11 -33 -8 -25 10 -15 23 19 23 30 -1 31 -2 14
-15z m715 -32 c10 -9 18 -22 18 -30 0 -7 7 -13 15 -13 8 0 15 -4 15 -8 0 -5
12 -12 26 -18 l26 -9 -30 -22 c-29 -22 -32 -22 -99 -8 -37 8 -85 15 -105 15
-20 0 -40 5 -43 10 -3 6 0 10 7 10 10 0 9 3 -1 9 -12 8 -10 11 10 16 18 4 41
-2 74 -19 26 -15 50 -24 52 -22 3 3 -14 21 -36 41 -23 21 -41 41 -41 45 0 22
88 25 112 3z m-677 -18 c24 -20 26 -23 8 -19 -22 6 -64 44 -47 44 5 -1 22 -12
39 -25z m909 -8 c14 -10 17 -23 14 -55 -2 -23 1 -44 7 -46 6 -3 6 -5 -1 -5 -6
-1 -22 8 -36 18 -20 16 -23 26 -20 60 4 44 9 48 36 28z m-802 -32 c69 -31 182
-61 273 -70 53 -6 64 -10 47 -16 -42 -16 -22 -22 56 -16 76 5 76 5 42 -10
l-35 -15 55 -17 c30 -10 69 -25 85 -34 30 -16 29 -16 -62 -17 -101 0 -328 17
-383 29 l-35 8 28 11 c41 17 72 21 88 12 8 -5 19 -4 26 2 11 8 12 7 6 -8 -6
-17 -5 -17 11 -5 19 16 11 28 -19 34 -11 2 -37 12 -57 21 -36 16 -97 30 -165
40 -24 3 -36 0 -42 -12 -5 -9 -12 -14 -16 -10 -6 6 29 98 38 98 3 0 29 -11 59
-25z m-430 -2 c10 -9 18 -23 17 -32 0 -10 -4 -8 -9 7 -5 12 -20 27 -32 32 -13
5 -17 9 -9 9 8 1 23 -6 33 -16z m-472 -59 l25 -15 -25 7 c-14 3 -29 10 -34 15
-16 14 6 10 34 -7z m-265 -15 l50 -18 -50 5 c-67 8 -86 14 -80 25 8 12 22 11
80 -12z m705 -80 c22 -6 22 -7 4 -8 -29 -1 -51 27 -59 74 -6 39 -5 39 12 -10
13 -37 24 -51 43 -56z m1318 85 c-4 -23 19 -29 26 -7 4 16 5 15 4 -2 -1 -38 2
-46 13 -39 7 4 10 0 7 -11 -1 -10 -19 -23 -38 -30 -40 -14 -140 -25 -140 -16
1 14 83 62 97 57 8 -4 11 -1 7 5 -3 6 -1 22 7 35 14 28 21 31 17 8z m-187 -42
c4 -4 3 -17 -2 -29 -15 -41 -89 -26 -89 18 0 10 6 20 13 23 15 6 69 -2 78 -12z"/>
<path d="M1243 925 c5 -13 85 -16 93 -4 3 5 10 7 15 4 5 -4 9 -2 9 4 0 6 -25
9 -60 8 -34 -1 -58 -6 -57 -12z"/>
<path d="M1790 839 c0 -17 4 -28 9 -25 5 3 20 -12 35 -34 14 -22 33 -40 42
-40 19 0 18 1 -26 67 -43 64 -60 73 -60 32z"/>
<path d="M2206 441 c-7 -11 22 -23 35 -15 5 3 7 10 4 15 -8 12 -32 12 -39 0z"/>
<path d="M517 522 c-20 -21 -22 -37 -5 -26 8 5 9 0 4 -17 -17 -55 -19 -109 -5
-109 9 0 20 26 32 78 9 42 17 80 17 85 0 14 -27 7 -43 -11z"/>
</g>
</svg>
